<svg width="460" height="152" viewBox="0 0 460 152" fill="none" xmlns="http://www.w3.org/2000/svg">
<path d="M0 0L84.9286 117L115.742 70.6415L62.9643 0H0Z" fill="url(#paint0_linear_1409_2840)"/>
<path d="M164 0H84.5625L125.969 55.5566L164 0Z" fill="url(#paint1_linear_1409_2840)"/>
<path d="M207.416 117L173.845 37.6084H202.653L229.986 104.638H212.86L240.988 37.6084H267.3L233.729 117H207.416ZM271.385 117V54.9612H297.017V117H271.385ZM284.201 49.9708C279.513 49.9708 275.771 48.7233 272.973 46.2281C270.175 43.7329 268.776 40.6329 268.776 36.9279C268.776 33.223 270.175 30.1229 272.973 27.6278C275.771 25.1326 279.513 23.885 284.201 23.885C288.889 23.885 292.632 25.057 295.429 27.4009C298.227 29.7449 299.626 32.7693 299.626 36.4743C299.626 40.406 298.227 43.6573 295.429 46.2281C292.632 48.7233 288.889 49.9708 284.201 49.9708ZM349.775 118.134C344.105 118.134 339.53 117 336.052 114.732C332.574 112.463 330.041 108.947 328.453 104.184C326.941 99.4204 326.185 93.3338 326.185 85.9239C326.185 78.5896 327.016 72.5785 328.68 67.8906C330.343 63.1272 332.914 59.6112 336.392 57.3429C339.946 54.999 344.407 53.827 349.775 53.827C355.219 53.827 360.21 55.1124 364.746 57.6832C369.283 60.2539 372.912 63.9589 375.634 68.798C378.356 73.5615 379.717 79.2701 379.717 85.9239C379.717 92.5776 378.356 98.3241 375.634 103.163C372.912 107.927 369.283 111.632 364.746 114.278C360.21 116.849 355.219 118.134 349.775 118.134ZM308.378 117V32.8449H334.01V63.2406L332.876 85.9239L332.763 108.607V117H308.378ZM343.651 98.1729C345.541 98.1729 347.242 97.7192 348.755 96.8119C350.267 95.9045 351.477 94.5435 352.384 92.7289C353.291 90.8386 353.745 88.5703 353.745 85.9239C353.745 83.2019 353.291 80.9714 352.384 79.2323C351.477 77.4176 350.267 76.0566 348.755 75.1493C347.242 74.242 345.541 73.7883 343.651 73.7883C341.761 73.7883 340.059 74.242 338.547 75.1493C337.035 76.0566 335.825 77.4176 334.918 79.2323C334.01 80.9714 333.557 83.2019 333.557 85.9239C333.557 88.5703 334.01 90.8386 334.918 92.7289C335.825 94.5435 337.035 95.9045 338.547 96.8119C340.059 97.7192 341.761 98.1729 343.651 98.1729ZM422.044 118.134C414.483 118.134 407.867 116.735 402.196 113.938C396.601 111.14 392.253 107.322 389.153 102.483C386.053 97.568 384.503 92.0484 384.503 85.9239C384.503 79.6482 386.015 74.0907 389.04 69.2516C392.14 64.4125 396.336 60.632 401.629 57.91C406.997 55.188 413.008 53.827 419.662 53.827C425.787 53.827 431.42 55.0368 436.561 57.4563C441.778 59.8759 445.937 63.4674 449.037 68.2309C452.213 72.9944 453.8 78.892 453.8 85.9239C453.8 86.8312 453.763 87.852 453.687 88.9861C453.611 90.0447 453.536 91.0276 453.46 91.9349H405.712V79.5725H439.85L430.21 82.8616C430.21 80.4421 429.756 78.4006 428.849 76.7371C428.017 74.9981 426.845 73.6749 425.333 72.7676C423.821 71.7846 422.006 71.2931 419.889 71.2931C417.772 71.2931 415.919 71.7846 414.332 72.7676C412.819 73.6749 411.647 74.9981 410.816 76.7371C409.984 78.4006 409.568 80.4421 409.568 82.8616V86.7178C409.568 89.3642 410.097 91.6325 411.156 93.5228C412.214 95.4131 413.727 96.8497 415.693 97.8326C417.658 98.7399 420.04 99.1936 422.838 99.1936C425.711 99.1936 428.055 98.8156 429.87 98.0594C431.76 97.3033 433.726 96.1692 435.767 94.6569L449.15 108.154C446.126 111.405 442.383 113.9 437.922 115.639C433.537 117.302 428.244 118.134 422.044 118.134Z" fill="white"/>
<defs>
<linearGradient id="paint0_linear_1409_2840" x1="96.2768" y1="0" x2="96.2768" y2="117" gradientUnits="userSpaceOnUse">
<stop stop-color="#008CFF"/>
<stop offset="1" stop-color="#00AAFF"/>
</linearGradient>
<linearGradient id="paint1_linear_1409_2840" x1="96.2768" y1="0" x2="96.2768" y2="117" gradientUnits="userSpaceOnUse">
<stop stop-color="#008CFF"/>
<stop offset="1" stop-color="#00AAFF"/>
</linearGradient>
</defs>
</svg>
