<svg xmlns="http://www.w3.org/2000/svg" viewBox="0 0 120 50" fill="none">
  <defs>
    <linearGradient id="gm" x1="0%" y1="0%" x2="100%" y2="100%">
      <stop offset="0%" stop-color="#c4a035"/>
      <stop offset="30%" stop-color="#d4b042"/>
      <stop offset="55%" stop-color="#b89828"/>
      <stop offset="100%" stop-color="#6b5812"/>
    </linearGradient>
  </defs>
  <!-- Layer 1: Letters BELOW sabre (A, R) -->
  <text x="33" y="35" font-family="Georgia, serif" font-size="26" font-weight="700" fill="#ffffff" letter-spacing="2">A</text>
  <text x="75" y="35" font-family="Georgia, serif" font-size="26" font-weight="700" fill="#ffffff" letter-spacing="2">R</text>
  <!-- Layer 2: Sabre sword -->
  <g transform="translate(-3,102) scale(0.06,-0.06) rotate(-5, 1000, 1100)">
    <path fill="url(#gm)" stroke="none" d="M2015 1359 c-193 -134 -508 -271 -715 -313 -156 -31 -316 -46 -500 -46 -102 0 -209 3 -238 7 l-53 6 3 46 c2 38 6 46 22 46 11 0 21 6 24 13 2 6 -2 12 -10 12 -26 0 -56 -30 -62 -63 -13 -68 -20 -72 -152 -69 -135 3 -191 -10 -211 -49 -18 -33 -16 -53 6 -80 17 -21 22 -22 46 -11 23 11 26 16 20 42 -6 26 -3 31 18 39 14 6 75 7 137 4 l112 -6 14 -33 c8 -18 14 -42 14 -53 0 -21 27 -41 54 -41 25 0 19 18 -6 22 -20 3 -23 9 -23 43 l0 40 305 6 c343 7 455 18 615 59 270 68 538 223 655 379 69 92 59 92 -75 0z"/>
  </g>
  <!-- Layer 3: Letters ABOVE sabre (S, B, E) -->
  <text x="13" y="35" font-family="Georgia, serif" font-size="26" font-weight="700" fill="#ffffff" letter-spacing="2">S</text>
  <text x="53" y="35" font-family="Georgia, serif" font-size="26" font-weight="700" fill="#ffffff" letter-spacing="2">B</text>
  <text x="96" y="35" font-family="Georgia, serif" font-size="26" font-weight="700" fill="#ffffff" letter-spacing="2">E</text>
</svg>
