<svg xmlns="http://www.w3.org/2000/svg" viewBox="0 0 100 100" fill="none">
  <defs>
    <linearGradient id="goldMetal" x1="0%" y1="0%" x2="100%" y2="100%">
      <stop offset="0%" stop-color="#c4a035"/>
      <stop offset="30%" stop-color="#d4b042"/>
      <stop offset="55%" stop-color="#b89828"/>
      <stop offset="100%" stop-color="#6b5812"/>
    </linearGradient>
  </defs>
  <g transform="translate(5,28) scale(0.04,-0.04)">
    <path fill="url(#goldMetal)" stroke="none" d="M2015 1359 c-193 -134 -508 -271 -715 -313 -156 -31 -316 -46 -500 -46 -102 0 -209 3 -238 7 l-53 6 3 46 c2 38 6 46 22 46 11 0 21 6 24 13 2 6 -2 12 -10 12 -26 0 -56 -30 -62 -63 -13 -68 -20 -72 -152 -69 -135 3 -191 -10 -211 -49 -18 -33 -16 -53 6 -80 17 -21 22 -22 46 -11 23 11 26 16 20 42 -6 26 -3 31 18 39 14 6 75 7 137 4 l112 -6 14 -33 c8 -18 14 -42 14 -53 0 -21 27 -41 54 -41 25 0 19 18 -6 22 -20 3 -23 9 -23 43 l0 40 305 6 c343 7 455 18 615 59 270 68 538 223 655 379 69 92 59 92 -75 0z"/>
  </g>
  <text x="50" y="68" font-family="Cormorant Garamond, Georgia, serif" font-size="18" font-weight="700" fill="#c4a035" text-anchor="middle" letter-spacing="5">SABRE</text>
</svg>
