<svg width="213" height="212" viewBox="0 0 213 212" fill="none" xmlns="http://www.w3.org/2000/svg">
<path fill-rule="evenodd" clip-rule="evenodd" d="M60.4068 0.386143C60.4068 0.765373 60.3698 0.774096 58.3082 0.879273C57.1541 0.938034 54.5986 0.98659 52.6297 0.986919L49.0497 0.987578V1.39907C49.0497 1.80825 49.0411 1.81056 47.5272 1.81155C46.6899 1.81204 45.3937 1.8601 44.6467 1.91821C43.3607 2.01828 43.2888 2.04445 43.2888 2.41101V2.79814H37.6925V3.78571H35.882C34.0882 3.78571 34.0714 3.78934 34.0714 4.17482C34.0714 4.5129 33.9714 4.57759 33.3077 4.66861C32.8878 4.72622 32.2212 4.77329 31.8263 4.77329C31.1706 4.77329 31.1087 4.80884 31.1087 5.18478C31.1087 5.56566 31.0506 5.59644 30.3269 5.59808C29.8968 5.59907 29.2674 5.64582 28.9278 5.70194C28.4169 5.78638 28.3106 5.87115 28.3106 6.19392C28.3106 6.56081 28.2521 6.58385 27.323 6.58385C26.3871 6.58385 26.3354 6.60475 26.3354 6.98349C26.3354 7.34445 26.2478 7.39416 25.4301 7.49621C24.6297 7.59628 24.5248 7.6529 24.5248 7.98572C24.5248 8.3233 24.423 8.37384 23.5373 8.47671C22.6516 8.57958 22.5497 8.63011 22.5497 8.9677C22.5497 9.30051 22.4448 9.35713 21.6444 9.45721C20.8267 9.55926 20.7391 9.60897 20.7391 9.96993C20.7391 10.3042 20.6585 10.3696 20.2453 10.3696C19.8064 10.3696 19.7516 10.4244 19.7516 10.8634C19.7516 11.3522 19.7423 11.3571 18.8463 11.3571C17.9904 11.3571 17.941 11.3795 17.941 11.7686C17.941 12.1161 17.8641 12.1801 17.4472 12.1801C17.0082 12.1801 16.9534 12.2349 16.9534 12.6739C16.9534 13.1129 16.8986 13.1677 16.4596 13.1677C16.0206 13.1677 15.9658 13.2225 15.9658 13.6615C15.9658 14.0748 15.9007 14.1553 15.5652 14.1553C15.2507 14.1553 15.1536 14.2524 15.1126 14.6079C15.0718 14.9634 14.9634 15.0718 14.6079 15.1126C14.2524 15.1536 14.1553 15.2507 14.1553 15.5652C14.1553 15.9007 14.0748 15.9658 13.6615 15.9658C13.2225 15.9658 13.1677 16.0206 13.1677 16.4596C13.1677 16.8729 13.1025 16.9534 12.7671 16.9534C12.4525 16.9534 12.3554 17.0505 12.3144 17.4061C12.2736 17.7616 12.1653 17.8699 11.8098 17.9107C11.3779 17.9604 11.3571 18.0039 11.3571 18.8571C11.3571 19.7412 11.3514 19.7516 10.8634 19.7516C10.4244 19.7516 10.3696 19.8064 10.3696 20.2453C10.3696 20.6585 10.3042 20.7391 9.96993 20.7391C9.60897 20.7391 9.55926 20.8267 9.45721 21.6444C9.35713 22.4448 9.30051 22.5497 8.9677 22.5497C8.63011 22.5497 8.57958 22.6516 8.47671 23.5373C8.37219 24.4384 8.32742 24.5248 7.96679 24.5248C7.59727 24.5248 7.57143 24.5841 7.57143 25.4301C7.57143 26.3262 7.56649 26.3354 7.07764 26.3354H6.58385V27.323C6.58385 28.2515 6.56064 28.3106 6.19475 28.3106C5.85666 28.3106 5.79198 28.4106 5.70096 29.0743C5.64335 29.4942 5.59627 30.1238 5.59627 30.4734C5.59627 31.0414 5.55266 31.1087 5.18478 31.1087C4.80884 31.1087 4.77329 31.1706 4.77329 31.8263C4.77329 32.2212 4.72622 32.8878 4.66861 33.3077C4.57759 33.9714 4.5129 34.0714 4.17482 34.0714C3.78934 34.0714 3.78571 34.0882 3.78571 35.882V37.6925H2.79814V42.4658H2.41199C2.03276 42.4658 2.02404 42.5029 1.91886 44.5644C1.8601 45.7186 1.81155 47.2 1.81122 47.8564C1.81056 49.0194 1.80002 49.0497 1.39907 49.0497H0.987578V53.3029C0.987578 55.6421 0.938857 58.79 0.879438 60.2982C0.771627 63.0336 0.770311 63.0404 0.385649 63.0404H0V145.997H0.389106C0.727186 145.997 0.791873 146.097 0.882894 146.761C0.940503 147.181 0.987578 150.402 0.987578 153.921V160.317H1.37487C1.73863 160.317 1.76875 160.394 1.86866 161.576C1.92726 162.269 1.97516 163.935 1.97516 165.28V167.724H2.76044L2.88043 170.522L3.00043 173.32H3.39315C3.77781 173.32 3.78571 173.35 3.78571 174.801C3.78571 176.25 3.79427 176.283 4.17564 176.283C4.63849 176.283 4.76852 176.813 4.77148 178.71C4.77329 179.855 4.78926 179.904 5.1624 179.904C5.50048 179.904 5.56516 180.004 5.65619 180.667C5.71379 181.087 5.76087 181.717 5.76087 182.067C5.76087 182.635 5.80449 182.702 6.17236 182.702C6.56558 182.702 6.58385 182.746 6.58385 183.689V184.677H7.07764C7.56649 184.677 7.57143 184.686 7.57143 185.582C7.57143 186.428 7.59727 186.488 7.96679 186.488C8.32742 186.488 8.37219 186.574 8.47671 187.475L8.59127 188.463H9.48042C10.319 188.463 10.3696 188.486 10.3696 188.874C10.3696 189.203 10.2873 189.286 9.95807 189.286C9.61061 189.286 9.54658 189.363 9.54658 189.78C9.54658 190.196 9.61061 190.273 9.95807 190.273C10.3472 190.273 10.3696 190.323 10.3696 191.179C10.3696 192.075 10.3745 192.084 10.8634 192.084C11.2999 192.084 11.3571 192.14 11.3571 192.567C11.3571 192.971 11.4307 193.058 11.8098 193.102C12.1653 193.143 12.2736 193.251 12.3144 193.606C12.3641 194.038 12.4076 194.059 13.2609 194.059H14.1553V196.857H14.6491C15.088 196.857 15.1429 196.912 15.1429 197.351C15.1429 197.79 15.1977 197.845 15.6366 197.845C16.0536 197.845 16.1304 197.781 16.1304 197.433C16.1304 197.104 16.2127 197.022 16.5419 197.022C16.931 197.022 16.9534 197.071 16.9534 197.927C16.9534 198.823 16.9584 198.832 17.4472 198.832C17.8605 198.832 17.941 198.897 17.941 199.233C17.941 199.547 18.0381 199.645 18.3936 199.686C18.7439 199.726 18.8576 199.836 18.8966 200.172C18.9422 200.567 19.0306 200.618 19.8431 200.719C20.6512 200.82 20.7391 200.87 20.7391 201.231C20.7391 201.565 20.8198 201.63 21.2329 201.63C21.6462 201.63 21.7267 201.696 21.7267 202.031C21.7267 202.346 21.8238 202.443 22.1793 202.484C22.5349 202.525 22.6432 202.633 22.684 202.988C22.736 203.44 22.7398 203.441 24.0419 203.441H25.3478V204.429H27.323V205.465L28.722 205.366L30.1211 205.268V205.753C30.1211 206.237 30.1247 206.239 31.1087 206.239H32.0963V207.227H34.8944V208.214H36.2935C37.6761 208.214 37.6925 208.21 37.6925 207.803C37.6925 207.455 37.7694 207.391 38.1863 207.391C38.5996 207.391 38.6801 207.456 38.6801 207.792C38.6801 208.106 38.7772 208.204 39.1328 208.245C39.448 208.281 39.6005 208.403 39.6354 208.647C39.7003 209.102 40.2813 209.198 43.0008 209.2L45.0994 209.202V210.025H51.8478V211.012H60.4661C65.2063 211.012 69.4282 211.059 69.8481 211.117C70.5117 211.208 70.6118 211.273 70.6118 211.611V212H147.972V211.614C147.972 211.23 147.979 211.228 150.714 211.121C152.222 211.061 155.407 211.012 157.792 211.012H162.127V210.226L165.831 210.105L169.534 209.985V209.593C169.534 209.203 169.539 209.202 171.509 209.202C173.477 209.202 173.484 209.2 173.484 208.812C173.484 208.349 174.014 208.219 175.912 208.216C177.057 208.214 177.106 208.198 177.106 207.825C177.106 207.487 177.206 207.422 177.869 207.331C178.289 207.274 179.141 207.227 179.762 207.227C180.857 207.227 180.891 207.214 180.891 206.815C180.891 206.447 180.959 206.404 181.527 206.404C181.876 206.404 182.506 206.357 182.926 206.299C183.589 206.208 183.689 206.143 183.689 205.805C183.689 205.439 183.749 205.416 184.677 205.416H185.665V204.922C185.665 204.434 185.674 204.429 186.57 204.429C187.416 204.429 187.475 204.403 187.475 204.033C187.475 203.673 187.562 203.628 188.463 203.523C189.348 203.42 189.45 203.37 189.45 203.032C189.45 202.699 189.555 202.643 190.356 202.543C191.173 202.441 191.261 202.391 191.261 202.03C191.261 201.696 191.342 201.63 191.755 201.63C192.194 201.63 192.248 201.576 192.248 201.137C192.248 200.648 192.258 200.643 193.154 200.643C194.05 200.643 194.059 200.638 194.059 200.149C194.059 199.71 194.114 199.655 194.553 199.655C194.97 199.655 195.047 199.591 195.047 199.244C195.047 198.896 195.123 198.832 195.54 198.832C195.979 198.832 196.034 198.777 196.034 198.339C196.034 197.925 196.099 197.845 196.435 197.845C196.749 197.845 196.846 197.748 196.887 197.392C196.928 197.037 197.037 196.928 197.392 196.887C197.748 196.846 197.845 196.749 197.845 196.435C197.845 196.099 197.925 196.034 198.339 196.034C198.777 196.034 198.832 195.979 198.832 195.54C198.832 195.13 198.898 195.047 199.225 195.047C199.577 195.047 199.629 194.954 199.731 194.141C199.833 193.324 199.882 193.236 200.243 193.236C200.578 193.236 200.643 193.155 200.643 192.742C200.643 192.303 200.698 192.248 201.137 192.248C201.576 192.248 201.63 192.194 201.63 191.755C201.63 191.342 201.696 191.261 202.03 191.261C202.391 191.261 202.441 191.173 202.543 190.356C202.643 189.555 202.699 189.45 203.032 189.45C203.37 189.45 203.42 189.348 203.523 188.463C203.628 187.562 203.673 187.475 204.033 187.475C204.402 187.475 204.429 187.415 204.429 186.581C204.429 185.727 204.449 185.684 204.881 185.634C205.31 185.585 205.336 185.532 205.383 184.636C205.428 183.771 205.465 183.689 205.813 183.689C206.142 183.689 206.209 183.584 206.299 182.926C206.357 182.506 206.404 181.876 206.404 181.527C206.404 180.968 206.451 180.891 206.794 180.891C207.174 180.891 207.188 180.843 207.302 179.081C207.417 177.308 207.428 177.27 207.817 177.27C208.208 177.27 208.214 177.245 208.214 175.789C208.214 174.34 208.223 174.307 208.604 174.307C209.095 174.307 209.198 173.788 209.2 171.304C209.202 169.548 209.205 169.534 209.595 169.534H209.988L210.109 165.831L210.23 162.127H211.012V157.955C211.012 155.661 211.06 153.105 211.119 152.277C211.219 150.869 211.25 150.77 211.587 150.77C211.944 150.77 211.948 150.736 212.056 147.04C212.196 142.217 212.198 64.1476 212.058 62.4891C211.961 61.3338 211.922 61.2298 211.59 61.2298C211.241 61.2298 211.224 61.151 211.121 59.1312C211.062 57.9771 211.013 55.2364 211.013 53.0411L211.012 49.0497H210.601C210.197 49.0497 210.189 49.026 210.189 47.7588C210.189 47.0487 210.141 45.5673 210.082 44.4668C209.976 42.5076 209.966 42.4658 209.588 42.4658H209.202V37.6925H208.214V35.882C208.214 34.0889 208.211 34.0714 207.826 34.0714C207.48 34.0714 207.426 33.9765 207.333 33.2073C207.276 32.7319 207.229 32.0655 207.228 31.7259C207.227 31.1777 207.181 31.1087 206.815 31.1087C206.434 31.1087 206.404 31.0506 206.402 30.3269C206.401 29.8968 206.354 29.2674 206.298 28.9278C206.214 28.4169 206.129 28.3106 205.806 28.3106C205.439 28.3106 205.416 28.2521 205.416 27.323C205.416 26.3871 205.395 26.3354 205.017 26.3354C204.656 26.3354 204.606 26.2478 204.504 25.4301C204.403 24.6236 204.349 24.5248 204.006 24.5248C203.654 24.5248 203.618 24.4463 203.573 23.5784C203.526 22.6926 203.495 22.6287 203.088 22.5816C202.694 22.536 202.643 22.4476 202.542 21.6352C202.441 20.827 202.391 20.7391 202.03 20.7391C201.696 20.7391 201.63 20.6585 201.63 20.2453C201.63 19.8322 201.565 19.7516 201.231 19.7516C200.87 19.7516 200.82 19.6637 200.719 18.8555C200.618 18.043 200.567 17.9547 200.172 17.9091C199.836 17.8701 199.726 17.7563 199.686 17.4061C199.645 17.0505 199.547 16.9534 199.233 16.9534C198.897 16.9534 198.832 16.8729 198.832 16.4596C198.832 16.0206 198.777 15.9658 198.339 15.9658C197.9 15.9658 197.845 15.911 197.845 15.472C197.845 15.0331 197.79 14.9783 197.351 14.9783C196.934 14.9783 196.857 14.9142 196.857 14.5668C196.857 14.2376 196.775 14.1553 196.446 14.1553C196.098 14.1553 196.034 14.0784 196.034 13.6615C196.034 13.2225 195.979 13.1677 195.54 13.1677C195.127 13.1677 195.047 13.1025 195.047 12.7671C195.047 12.4525 194.949 12.3554 194.594 12.3144C194.244 12.2743 194.13 12.1642 194.091 11.8276C194.045 11.4334 193.957 11.3823 193.145 11.2808C192.336 11.1799 192.248 11.1297 192.248 10.7692C192.248 10.4349 192.168 10.3696 191.755 10.3696C191.342 10.3696 191.261 10.3042 191.261 9.96993C191.261 9.60897 191.173 9.55926 190.356 9.45721C189.555 9.35713 189.45 9.30051 189.45 8.9677C189.45 8.63011 189.348 8.57958 188.463 8.47671C187.577 8.37384 187.475 8.3233 187.475 7.98572C187.475 7.6529 187.37 7.59628 186.57 7.49621C185.752 7.39416 185.665 7.34445 185.665 6.98349C185.665 6.60475 185.613 6.58385 184.677 6.58385C183.748 6.58385 183.689 6.56081 183.689 6.19392C183.689 5.87115 183.583 5.78638 183.072 5.70194C182.733 5.64582 182.103 5.59907 181.673 5.59808C180.949 5.59644 180.891 5.56566 180.891 5.18478C180.891 4.80391 180.833 4.77313 180.109 4.77148C179.68 4.77049 179.05 4.72375 178.71 4.66762C178.199 4.58318 178.093 4.49842 178.093 4.17564C178.093 3.78802 178.082 3.78571 176.2 3.78571H174.307V2.79814H169.534V2.41101C169.534 2.04445 169.462 2.01828 168.176 1.91821C167.429 1.8601 165.948 1.81204 164.884 1.81155L162.95 1.81056V0.987578H159.108C156.995 0.987578 154.255 0.939022 153.018 0.879767C150.8 0.773438 150.77 0.766689 150.77 0.385978V0H60.4068V0.386143ZM97.1118 25.9239V26.3354H94.9951C93.8307 26.3354 92.5345 26.3825 92.1147 26.4401C91.451 26.5311 91.3509 26.5958 91.3509 26.9339V27.323H86.7641L86.7119 27.7756L86.6599 28.2283L84.8082 28.2748C82.9919 28.3204 82.9565 28.3287 82.9565 28.7051C82.9565 29.0368 82.853 29.1029 82.1928 29.1935C81.7729 29.2511 81.1433 29.2981 80.7937 29.2981C80.2257 29.2981 80.1584 29.3418 80.1584 29.7096C80.1584 30.1028 80.1144 30.1211 79.1708 30.1211C78.2417 30.1211 78.1832 30.1442 78.1832 30.511C78.1832 30.8338 78.0769 30.9186 77.566 31.003C77.2266 31.0592 76.597 31.1059 76.1669 31.1069C75.4083 31.1087 75.3851 31.1233 75.3851 31.6025V32.0963H74.3975C73.4539 32.0963 73.4099 32.1145 73.4099 32.5078C73.4099 32.8969 73.3606 32.9193 72.5047 32.9193C71.6086 32.9193 71.5994 32.9242 71.5994 33.413V33.9068H70.6118C69.6827 33.9068 69.6242 33.9299 69.6242 34.2968C69.6242 34.6195 69.5179 34.7043 69.007 34.7887C68.6676 34.8449 68.0798 34.8916 67.7011 34.8926C67.0728 34.8942 67.008 34.9341 66.9604 35.347C66.9196 35.7026 66.8113 35.8109 66.4557 35.8517C66.1032 35.8924 66.0031 35.9906 66.0031 36.2963C66.0031 36.6584 65.9304 36.6923 65.0567 36.7379C64.1608 36.7846 64.1074 36.8115 64.0582 37.2399C64.0085 37.6718 63.9651 37.6925 63.1118 37.6925C62.2278 37.6925 62.2174 37.6983 62.2174 38.1863C62.2174 38.6253 62.1626 38.6801 61.7236 38.6801C61.3129 38.6801 61.2298 38.7463 61.2298 39.0727C61.2298 39.4249 61.1371 39.4768 60.3245 39.5783C59.5068 39.6804 59.4193 39.7301 59.4193 40.091C59.4193 40.4253 59.3386 40.4907 58.9255 40.4907C58.4865 40.4907 58.4317 40.5455 58.4317 40.9845C58.4317 41.4733 58.4225 41.4783 57.5264 41.4783C56.6303 41.4783 56.6211 41.4832 56.6211 41.972C56.6211 42.411 56.5663 42.4658 56.1273 42.4658C55.7104 42.4658 55.6335 42.5299 55.6335 42.8773C55.6335 43.2248 55.5567 43.2888 55.1398 43.2888C54.7008 43.2888 54.646 43.3436 54.646 43.7826C54.646 44.2216 54.5912 44.2764 54.1522 44.2764C53.7132 44.2764 53.6584 44.3312 53.6584 44.7702C53.6584 45.259 53.6492 45.264 52.7531 45.264C51.857 45.264 51.8478 45.2689 51.8478 45.7578C51.8478 46.1967 51.793 46.2516 51.354 46.2516C50.9151 46.2516 50.8602 46.3064 50.8602 46.7453C50.8602 47.1623 50.7962 47.2391 50.4488 47.2391C50.1196 47.2391 50.0373 47.3214 50.0373 47.6506C50.0373 47.9981 49.9604 48.0621 49.5435 48.0621C49.1045 48.0621 49.0497 48.1169 49.0497 48.5559C49.0497 48.9949 48.9949 49.0497 48.5559 49.0497C48.1169 49.0497 48.0621 49.1045 48.0621 49.5435C48.0621 49.9825 48.0073 50.0373 47.5683 50.0373C47.1514 50.0373 47.0745 50.1013 47.0745 50.4488C47.0745 50.778 46.9922 50.8602 46.663 50.8602C46.3156 50.8602 46.2516 50.9371 46.2516 51.354C46.2516 51.793 46.1967 51.8478 45.7578 51.8478C45.3188 51.8478 45.264 51.9026 45.264 52.3416C45.264 52.7806 45.2092 52.8354 44.7702 52.8354C44.2813 52.8354 44.2764 52.8446 44.2764 53.7407C44.2764 54.6367 44.2715 54.646 43.7826 54.646C43.3436 54.646 43.2888 54.7008 43.2888 55.1398C43.2888 55.5531 43.2236 55.6335 42.8882 55.6335C42.5737 55.6335 42.4765 55.7307 42.4356 56.0862C42.3947 56.4417 42.2864 56.55 41.9309 56.5908C41.5518 56.6345 41.4783 56.7215 41.4783 57.1258C41.4783 57.5294 41.4116 57.6087 41.0724 57.6087C40.7104 57.6087 40.6549 57.6964 40.5587 58.4226C40.4627 59.1462 40.4026 59.2423 40.018 59.2868C39.6631 59.3279 39.5762 59.4329 39.5339 59.8719C39.4919 60.3069 39.4109 60.4068 39.1002 60.4068C38.7604 60.4068 38.7055 60.5072 38.6049 61.3121C38.5029 62.1298 38.4531 62.2174 38.0922 62.2174C37.7579 62.2174 37.6925 62.298 37.6925 62.7112C37.6925 63.1243 37.6272 63.205 37.2929 63.205C36.9319 63.205 36.8822 63.2925 36.7802 64.1102C36.6804 64.9084 36.6228 65.0155 36.2935 65.0155C35.9641 65.0155 35.9065 65.1227 35.8068 65.9208C35.7047 66.7385 35.655 66.8261 35.294 66.8261C34.9598 66.8261 34.8944 66.9067 34.8944 67.3199C34.8944 67.7589 34.8396 67.8137 34.4006 67.8137H33.9068V68.8012C33.9068 69.7371 33.8859 69.7888 33.5072 69.7888C33.1462 69.7888 33.0965 69.8764 32.9945 70.6941C32.8937 71.5006 32.8394 71.5994 32.4971 71.5994C32.1447 71.5994 32.1086 71.6779 32.0634 72.5458C32.0166 73.4417 31.9898 73.495 31.5613 73.5443C31.1484 73.5918 31.1085 73.6567 31.1069 74.2849C31.1034 75.5874 30.9341 76.1862 30.5537 76.2403C30.2497 76.2838 30.1968 76.4155 30.154 77.2368C30.1081 78.1181 30.0768 78.1832 29.7014 78.1832C29.3352 78.1832 29.2981 78.2491 29.2981 78.9009C29.2981 79.2957 29.2511 79.9623 29.1935 80.3822C29.1024 81.0459 29.0377 81.146 28.6997 81.146C28.3265 81.146 28.3106 81.195 28.3087 82.3393C28.3058 84.2371 28.1758 84.7671 27.7129 84.7671C27.3253 84.7671 27.323 84.7784 27.323 86.6599V88.5528H26.3354V93.3261H25.5499L25.4286 98.0171L25.3073 102.708H24.5248V110.28H25.3478V112.639C25.3478 113.937 25.3967 116.9 25.4565 119.223L25.5653 123.447H26.3354V125.975C26.3354 127.366 26.3825 128.847 26.4401 129.267C26.5311 129.931 26.5958 130.031 26.9339 130.031H27.323V134.804H27.7129C28.2 134.804 28.3061 135.325 28.3087 137.726C28.3106 139.393 28.3153 139.413 28.7023 139.413C29.0853 139.413 29.0967 139.455 29.2124 141.306C29.3283 143.162 29.3383 143.199 29.7259 143.199C30.1203 143.199 30.1211 143.203 30.1211 145.092V146.984H31.1087V148.877C31.1087 150.758 31.1113 150.77 31.4978 150.77C31.8359 150.77 31.9006 150.87 31.9916 151.534C32.0492 151.954 32.0963 152.769 32.0963 153.344C32.0963 154.351 32.1119 154.391 32.5078 154.391C32.9112 154.391 32.9193 154.416 32.9211 155.667C32.9239 157.648 33.0495 158.177 33.5169 158.177C33.9045 158.177 33.9068 158.188 33.9068 160.07C33.9068 161.95 33.9095 161.963 34.2959 161.963C34.634 161.963 34.6987 162.063 34.7897 162.726C34.8473 163.146 34.8944 164.22 34.8944 165.113C34.8944 166.735 34.8947 166.736 35.3059 166.736H35.7174V168.685C35.7174 169.757 35.7661 171.868 35.8255 173.376C35.9333 176.111 35.9347 176.118 36.3193 176.118H36.705V182.702H37.1988C37.6353 182.702 37.6925 182.758 37.6925 183.185C37.6925 183.589 37.7661 183.676 38.1452 183.72C38.5657 183.768 38.6013 183.831 38.6469 184.616C38.6953 185.449 38.7033 185.461 39.3053 185.56C39.6404 185.616 40.2663 185.662 40.6964 185.663C41.4557 185.665 41.4783 185.679 41.4783 186.161V186.656L47.1157 186.613L52.7531 186.57L52.8051 186.117L52.8573 185.665H55.6335V184.677H57.0326C58.4076 184.677 58.4317 184.67 58.4317 184.274C58.4317 183.903 58.5113 183.861 59.4193 183.759C60.3074 183.658 60.4068 183.609 60.4068 183.269C60.4068 182.933 60.5102 182.877 61.3121 182.777C62.1247 182.676 62.2174 182.624 62.2174 182.271C62.2174 181.905 62.2785 181.879 63.1227 181.879C64.0187 181.879 64.028 181.874 64.028 181.385C64.028 180.946 64.0828 180.891 64.5217 180.891C64.9324 180.891 65.0155 180.825 65.0155 180.499C65.0155 180.147 65.1082 180.095 65.9208 179.993C66.7385 179.891 66.8261 179.841 66.8261 179.48C66.8261 179.146 66.9067 179.081 67.3199 179.081C67.7589 179.081 67.8137 179.026 67.8137 178.587C67.8137 178.148 67.8685 178.093 68.3075 178.093C68.7464 178.093 68.8012 178.038 68.8012 177.599C68.8012 177.16 68.8561 177.106 69.295 177.106C69.7083 177.106 69.7888 177.04 69.7888 176.705C69.7888 176.39 69.8859 176.293 70.2415 176.252C70.597 176.212 70.7053 176.103 70.7461 175.748C70.7958 175.316 70.8393 175.295 71.6925 175.295C72.5298 175.295 72.587 175.321 72.587 175.695C72.587 176.056 72.6745 176.105 73.4922 176.207C74.3048 176.309 74.3975 176.361 74.3975 176.713C74.3975 177.039 74.4806 177.106 74.8913 177.106C75.3303 177.106 75.3851 177.16 75.3851 177.599C75.3851 178.087 75.3955 178.093 76.2795 178.093C77.1328 178.093 77.1762 178.114 77.2259 178.546C77.2668 178.901 77.3751 179.01 77.7306 179.05C78.0804 179.091 78.1832 179.19 78.1832 179.487C78.1832 179.834 78.2784 179.882 79.1708 179.986C80.072 180.091 80.1584 180.135 80.1584 180.496C80.1584 180.865 80.2176 180.891 81.0637 180.891C81.9597 180.891 81.9689 180.896 81.9689 181.385V181.879H82.9565C83.8857 181.879 83.9441 181.902 83.9441 182.269C83.9441 182.592 84.0504 182.676 84.5613 182.761C84.9009 182.817 85.4934 182.864 85.8781 182.865C86.5141 182.866 86.5776 182.904 86.5776 183.278C86.5776 183.671 86.6216 183.689 87.5652 183.689H88.5528V184.677H90.4457C92.326 184.677 92.3385 184.68 92.3385 185.066C92.3385 185.404 92.4386 185.469 93.1022 185.56C93.5221 185.618 94.8183 185.665 95.9827 185.665H98.0994V186.488H114.065V185.665H120.649V184.677H125.422V184.287C125.422 183.824 125.952 183.694 127.85 183.691C129.013 183.689 129.043 183.679 129.043 183.278C129.043 182.902 129.105 182.866 129.761 182.866C130.156 182.866 130.823 182.819 131.242 182.762C131.906 182.671 132.006 182.606 132.006 182.268C132.006 181.889 132.044 181.879 133.405 181.879H134.804V180.891H136.11C137.412 180.891 137.416 180.89 137.468 180.439C137.517 180.01 137.571 179.983 138.467 179.937C139.342 179.891 139.413 179.858 139.413 179.492C139.413 179.127 139.484 179.093 140.359 179.048C141.255 179.001 141.309 178.974 141.358 178.546C141.408 178.114 141.451 178.093 142.304 178.093C143.144 178.093 143.199 178.068 143.199 177.69C143.199 177.319 143.278 177.278 144.186 177.175C145.074 177.074 145.174 177.025 145.174 176.685C145.174 176.349 145.277 176.293 146.079 176.193C146.877 176.093 146.984 176.036 146.984 175.707C146.984 175.377 147.092 175.32 147.89 175.22C148.707 175.118 148.795 175.068 148.795 174.707C148.795 174.373 148.876 174.307 149.289 174.307C149.702 174.307 149.783 174.242 149.783 173.908C149.783 173.547 149.87 173.497 150.688 173.395C151.501 173.294 151.593 173.242 151.593 172.889C151.593 172.563 151.676 172.497 152.087 172.497C152.526 172.497 152.581 172.442 152.581 172.003C152.581 171.514 152.59 171.509 153.486 171.509C154.382 171.509 154.391 171.504 154.391 171.016C154.391 170.579 154.447 170.522 154.874 170.522C155.278 170.522 155.366 170.448 155.409 170.069C155.45 169.714 155.558 169.605 155.914 169.564C156.269 169.523 156.366 169.426 156.366 169.112C156.366 168.776 156.447 168.711 156.86 168.711C157.299 168.711 157.354 168.656 157.354 168.217C157.354 167.729 157.363 167.724 158.259 167.724C159.155 167.724 159.165 167.719 159.165 167.23C159.165 166.791 159.219 166.736 159.658 166.736C160.097 166.736 160.152 166.681 160.152 166.242C160.152 165.803 160.207 165.748 160.646 165.748C161.059 165.748 161.14 165.683 161.14 165.348C161.14 165.033 161.237 164.936 161.592 164.895C161.948 164.854 162.056 164.746 162.097 164.391C162.138 164.039 162.236 163.938 162.539 163.938C162.842 163.938 162.94 163.837 162.981 163.485C163.021 163.13 163.13 163.021 163.485 162.981C163.837 162.94 163.938 162.842 163.938 162.539C163.938 162.236 164.039 162.138 164.391 162.097C164.743 162.057 164.855 161.947 164.894 161.602C164.934 161.26 165.046 161.148 165.388 161.109C165.733 161.069 165.842 160.958 165.883 160.605C165.924 160.249 166.021 160.152 166.335 160.152C166.671 160.152 166.736 160.072 166.736 159.658C166.736 159.219 166.791 159.165 167.23 159.165C167.669 159.165 167.724 159.11 167.724 158.671C167.724 158.259 167.789 158.177 168.12 158.177C168.47 158.177 168.529 158.082 168.629 157.354C168.729 156.626 168.788 156.531 169.138 156.531C169.468 156.531 169.534 156.449 169.534 156.037C169.534 155.598 169.589 155.543 170.028 155.543C170.464 155.543 170.522 155.487 170.522 155.061C170.522 154.656 170.595 154.569 170.974 154.526C171.396 154.477 171.43 154.415 171.476 153.62C171.522 152.829 171.559 152.762 171.97 152.714C172.317 152.674 172.426 152.564 172.467 152.21C172.508 151.855 172.605 151.758 172.919 151.758C173.255 151.758 173.32 151.677 173.32 151.264C173.32 150.825 173.375 150.77 173.814 150.77C174.302 150.77 174.307 150.76 174.307 149.876C174.307 149.023 174.328 148.979 174.76 148.929C175.189 148.88 175.215 148.827 175.262 147.931C175.308 147.057 175.342 146.984 175.704 146.984C176.009 146.984 176.108 146.884 176.148 146.532C176.189 146.176 176.297 146.068 176.653 146.027C177.085 145.977 177.106 145.934 177.106 145.081C177.106 144.197 177.111 144.186 177.599 144.186H178.093V143.199C178.093 142.263 178.114 142.211 178.493 142.211C178.854 142.211 178.903 142.124 179.006 141.306C179.106 140.499 179.161 140.401 179.503 140.401C179.855 140.401 179.891 140.322 179.937 139.454C179.983 138.558 180.01 138.505 180.439 138.456C180.89 138.404 180.891 138.399 180.891 137.109C180.891 135.818 180.893 135.814 181.344 135.762C181.772 135.712 181.799 135.659 181.846 134.763C181.892 133.882 181.923 133.817 182.299 133.817C182.665 133.817 182.702 133.751 182.702 133.099C182.702 132.704 182.749 132.038 182.807 131.618C182.898 130.954 182.962 130.854 183.3 130.854C183.679 130.854 183.689 130.816 183.689 129.455V128.056H184.677V126.163C184.677 124.282 184.679 124.27 185.067 124.27C185.572 124.27 185.66 123.761 185.663 120.855L185.665 118.674H186.449L186.571 112.995L186.693 107.317H187.084C187.448 107.317 187.475 107.255 187.475 106.411C187.475 105.572 187.447 105.506 187.09 105.506H186.705L186.597 101.186C186.537 98.8093 186.488 96.0688 186.488 95.0955L186.488 93.3261H186.076C185.665 93.3261 185.665 93.3246 185.665 91.7032C185.665 90.8104 185.618 89.7364 185.56 89.3165C185.469 88.6529 185.404 88.5528 185.066 88.5528C184.68 88.5528 184.677 88.5403 184.677 86.6599V84.7671H183.689V81.1679L183.237 81.1157C182.808 81.0665 182.782 81.0131 182.735 80.1172C182.689 79.2404 182.656 79.1708 182.289 79.1708C181.903 79.1708 181.89 79.1298 181.844 77.7306C181.8 76.4046 181.769 76.2864 181.446 76.2403C181.066 76.1862 180.897 75.5874 180.893 74.2849C180.891 73.6567 180.852 73.5918 180.439 73.5443C180.01 73.495 179.983 73.4417 179.937 72.5458C179.891 71.6779 179.855 71.5994 179.503 71.5994C179.161 71.5994 179.106 71.5006 179.006 70.6941C178.903 69.8764 178.854 69.7888 178.493 69.7888C178.114 69.7888 178.093 69.7371 178.093 68.8012V67.8137H177.599C177.111 67.8137 177.106 67.8033 177.106 66.9193C177.106 66.066 177.085 66.0225 176.653 65.9728C176.231 65.9243 176.197 65.8627 176.151 65.0567C176.105 64.2697 176.066 64.1925 175.708 64.1925C175.386 64.1925 175.307 64.0971 175.264 63.6576C175.221 63.2119 175.137 63.1139 174.76 63.0707C174.328 63.0209 174.307 62.9775 174.307 62.1242C174.307 61.2402 174.302 61.2298 173.814 61.2298C173.375 61.2298 173.32 61.175 173.32 60.736C173.32 60.3229 173.255 60.2422 172.92 60.2422C172.559 60.2422 172.51 60.1547 172.408 59.337C172.306 58.5243 172.254 58.4317 171.902 58.4317C171.575 58.4317 171.509 58.3486 171.509 57.9379C171.509 57.4989 171.455 57.4441 171.016 57.4441C170.577 57.4441 170.522 57.3893 170.522 56.9503C170.522 56.5372 170.456 56.4565 170.122 56.4565C169.761 56.4565 169.711 56.369 169.609 55.5512C169.502 54.6893 169.474 54.646 169.021 54.646C168.604 54.646 168.547 54.5867 168.547 54.1522C168.547 53.7353 168.483 53.6584 168.135 53.6584C167.809 53.6584 167.724 53.5754 167.724 53.2578C167.724 52.9432 167.626 52.8461 167.271 52.8051C166.915 52.7643 166.807 52.656 166.766 52.3005C166.726 51.9489 166.627 51.8478 166.325 51.8478C166.022 51.8478 165.923 51.7468 165.883 51.3952C165.842 51.0397 165.734 50.9314 165.378 50.8905C164.999 50.8469 164.925 50.7598 164.925 50.3556C164.925 49.9288 164.868 49.8727 164.432 49.8727C163.993 49.8727 163.938 49.8179 163.938 49.3789C163.938 48.962 163.874 48.8851 163.526 48.8851C163.197 48.8851 163.115 48.8028 163.115 48.4736C163.115 48.1261 163.038 48.0621 162.621 48.0621C162.182 48.0621 162.127 48.0073 162.127 47.5683C162.127 47.1318 162.071 47.0745 161.644 47.0745C161.24 47.0745 161.153 47.001 161.109 46.6219C161.069 46.2664 160.96 46.1581 160.605 46.1172C160.249 46.0763 160.152 45.9791 160.152 45.6646C160.152 45.3292 160.072 45.264 159.658 45.264C159.219 45.264 159.165 45.2092 159.165 44.7702C159.165 44.3533 159.101 44.2764 158.753 44.2764C158.424 44.2764 158.342 44.1941 158.342 43.8649C158.342 43.5174 158.265 43.4534 157.848 43.4534C157.413 43.4534 157.354 43.3965 157.354 42.9786C157.354 42.5264 157.311 42.4984 156.449 42.3906C155.631 42.2886 155.543 42.2389 155.543 41.8779C155.543 41.5436 155.463 41.4783 155.05 41.4783C154.611 41.4783 154.556 41.4235 154.556 40.9845C154.556 40.5455 154.501 40.4907 154.062 40.4907C153.651 40.4907 153.568 40.4245 153.568 40.0981C153.568 39.7459 153.476 39.694 152.663 39.5925C151.845 39.4904 151.758 39.4407 151.758 39.0798C151.758 38.7455 151.677 38.6801 151.264 38.6801C150.825 38.6801 150.77 38.6253 150.77 38.1863C150.77 37.6983 150.76 37.6925 149.876 37.6925C149.023 37.6925 148.979 37.6718 148.929 37.2399C148.886 36.8628 148.788 36.7787 148.342 36.7357C147.904 36.6934 147.807 36.6138 147.807 36.295C147.807 35.9465 147.712 35.8938 146.902 35.7926C146.09 35.6911 145.997 35.6392 145.997 35.287C145.997 34.9209 145.936 34.8944 145.092 34.8944C144.196 34.8944 144.186 34.8895 144.186 34.4006V33.9068H143.199C142.263 33.9068 142.211 33.8859 142.211 33.5072C142.211 33.1462 142.124 33.0965 141.306 32.9945C140.499 32.8937 140.401 32.8394 140.401 32.4971C140.401 32.1447 140.322 32.1086 139.454 32.0634C138.558 32.0166 138.505 31.9898 138.456 31.5613C138.404 31.1103 138.399 31.1087 137.109 31.1087C135.818 31.1087 135.814 31.107 135.762 30.6561C135.712 30.2222 135.667 30.2014 134.681 30.1544C133.712 30.1083 133.652 30.0819 133.652 29.7017C133.652 29.3156 133.607 29.2981 132.605 29.2981C132.029 29.2981 131.215 29.2511 130.795 29.1935C130.131 29.1024 130.031 29.0377 130.031 28.6997C130.031 28.3455 129.961 28.3104 129.249 28.3087C128.819 28.3078 128.19 28.261 127.85 28.2049C127.339 28.1205 127.233 28.0357 127.233 27.7129C127.233 27.3245 127.226 27.323 125.258 27.323C123.29 27.323 123.283 27.3215 123.283 26.9331C123.283 26.4169 122.786 26.3395 119.456 26.3372L116.863 26.3354V25.5124H97.1118V25.9239ZM0.0809814 104.519C0.0809814 127.377 0.100075 136.728 0.123447 125.299C0.14682 113.87 0.14682 95.1676 0.123447 83.7384C0.100075 72.3091 0.0809814 81.6603 0.0809814 104.519ZM99.9099 65.4023C99.9099 65.7725 99.8448 65.7939 98.4032 65.8961C97.5746 65.955 96.5007 66.0031 96.0166 66.0031C95.1877 66.0031 95.1366 66.027 95.1366 66.4146C95.1366 66.8213 95.1202 66.8261 93.7376 66.8261H92.3385V67.8137H91.3509C90.415 67.8137 90.3634 67.8346 90.3634 68.2133C90.3634 68.5743 90.2758 68.624 89.4581 68.726C88.6576 68.8261 88.5528 68.8827 88.5528 69.2155C88.5528 69.5531 88.4509 69.6036 87.5652 69.7065C86.6641 69.811 86.5776 69.8558 86.5776 70.2164C86.5776 70.586 86.5184 70.6118 85.6724 70.6118C84.7763 70.6118 84.7671 70.6167 84.7671 71.1056C84.7671 71.5446 84.7123 71.5994 84.2733 71.5994C83.8602 71.5994 83.7795 71.6647 83.7795 71.999C83.7795 72.36 83.6919 72.4097 82.8742 72.5117C82.0122 72.6195 81.9689 72.6475 81.9689 73.0997C81.9689 73.5176 81.9097 73.5745 81.4752 73.5745C81.0582 73.5745 80.9814 73.6386 80.9814 73.986C80.9814 74.3152 80.8991 74.3975 80.5699 74.3975C80.2224 74.3975 80.1584 74.4744 80.1584 74.8913C80.1584 75.3303 80.1036 75.3851 79.6646 75.3851C79.2477 75.3851 79.1708 75.4491 79.1708 75.7966C79.1708 76.144 79.0939 76.2081 78.677 76.2081C78.238 76.2081 78.1832 76.2629 78.1832 76.7019C78.1832 77.1408 78.1284 77.1957 77.6894 77.1957C77.2505 77.1957 77.1957 77.2505 77.1957 77.6894C77.1957 78.1027 77.1305 78.1832 76.795 78.1832C76.4805 78.1832 76.3834 78.2803 76.3424 78.6359C76.3016 78.9914 76.1933 79.0997 75.8377 79.1405C75.4587 79.1841 75.3851 79.2712 75.3851 79.6755C75.3851 80.0771 75.3178 80.1584 74.9855 80.1584C74.6245 80.1584 74.5748 80.246 74.4727 81.0637C74.3649 81.9257 74.3369 81.9689 73.8848 81.9689C73.4669 81.9689 73.4099 82.0282 73.4099 82.4627C73.4099 82.8797 73.3459 82.9565 72.9984 82.9565C72.6093 82.9565 72.587 83.0059 72.587 83.8618C72.587 84.7579 72.582 84.7671 72.0932 84.7671C71.6051 84.7671 71.5994 84.7775 71.5994 85.6615C71.5994 86.5148 71.5786 86.5582 71.1467 86.6079C70.7183 86.6571 70.6915 86.7105 70.6447 87.6064C70.5993 88.4763 70.5641 88.5528 70.2082 88.5528C69.8576 88.5528 69.8104 88.6458 69.7065 89.5404C69.6025 90.4363 69.5557 90.528 69.2032 90.528C68.83 90.528 68.8126 90.5819 68.7667 91.8859C68.7194 93.2314 68.7148 93.2443 68.2663 93.2958L67.8137 93.348V94.736C67.8137 96.0865 67.8031 96.1242 67.4237 96.1242C66.9563 96.1242 66.8307 96.6531 66.8279 98.6343C66.8261 99.8848 66.818 99.9099 66.4146 99.9099H66.0031V102.438C66.0031 103.829 65.956 105.31 65.8984 105.73C65.8074 106.394 65.7427 106.494 65.4046 106.494H65.0155V123.447H65.4046C65.7427 123.447 65.8074 123.547 65.8984 124.211C65.956 124.631 66.0031 126.112 66.0031 127.503V130.031H66.4146C66.8221 130.031 66.8261 130.045 66.8271 131.471C66.8276 132.263 66.8756 133.522 66.9337 134.269C67.0338 135.555 67.06 135.627 67.4265 135.627C67.8043 135.627 67.8137 135.663 67.8137 137.109C67.8137 138.557 67.8222 138.59 68.2036 138.59C68.5264 138.59 68.6111 138.696 68.6956 139.207C68.7517 139.547 68.7984 140.176 68.7994 140.606C68.8011 141.326 68.8333 141.388 69.2045 141.388C69.5753 141.388 69.6168 141.468 69.7197 142.376C69.8204 143.267 69.8686 143.363 70.213 143.363C70.5573 143.363 70.5995 143.448 70.6444 144.227C70.6908 145.034 70.7246 145.095 71.1467 145.144C71.5786 145.193 71.5994 145.237 71.5994 146.09V146.984H75.3851V146.491C75.3851 146.002 75.3943 145.997 76.2904 145.997C77.1463 145.997 77.1957 145.975 77.1957 145.585C77.1957 145.238 77.2725 145.174 77.6894 145.174C78.1284 145.174 78.1832 145.119 78.1832 144.68C78.1832 144.192 78.1936 144.186 79.0776 144.186C79.9309 144.186 79.9744 144.166 80.0241 143.734C80.0646 143.381 80.1739 143.27 80.5187 143.23C80.8609 143.19 80.973 143.078 81.0125 142.736C81.0523 142.391 81.1636 142.282 81.5163 142.241C81.8718 142.2 81.9689 142.103 81.9689 141.789C81.9689 141.453 82.0494 141.388 82.4627 141.388C82.9017 141.388 82.9565 141.333 82.9565 140.894C82.9565 140.455 83.0113 140.401 83.4503 140.401C83.8672 140.401 83.9441 140.337 83.9441 139.989C83.9441 139.66 84.0264 139.578 84.3556 139.578C84.6848 139.578 84.7671 139.66 84.7671 139.989C84.7671 140.378 84.8171 140.401 85.6615 140.401C86.5148 140.401 86.5582 140.421 86.6079 140.853C86.6571 141.282 86.7105 141.309 87.6064 141.355C88.4743 141.401 88.5528 141.437 88.5528 141.789C88.5528 142.131 88.6516 142.186 89.4581 142.286C90.2758 142.388 90.3634 142.438 90.3634 142.799C90.3634 143.178 90.415 143.199 91.3509 143.199H92.3385V144.186H95.1148L95.1669 144.639C95.2185 145.088 95.2313 145.092 96.5769 145.139C97.8966 145.186 97.9348 145.199 97.9348 145.592V145.997H100.051C101.216 145.997 102.512 146.044 102.932 146.102C103.596 146.193 103.696 146.257 103.696 146.595C103.696 146.981 103.712 146.984 105.506 146.984C107.297 146.984 107.317 146.98 107.317 146.598C107.317 146.227 107.382 146.206 108.823 146.104C109.652 146.045 111.356 145.997 112.609 145.997H114.888V145.585C114.888 145.182 114.913 145.174 116.164 145.172C118.145 145.169 118.674 145.044 118.674 144.576C118.674 144.197 118.711 144.186 120.073 144.186H121.472V143.199H122.46C123.391 143.199 123.447 143.176 123.447 142.806C123.447 142.454 123.54 142.402 124.352 142.301C125.154 142.2 125.258 142.144 125.258 141.809C125.258 141.469 125.357 141.419 126.245 141.319C127.153 141.216 127.233 141.175 127.233 140.804C127.233 140.425 127.287 140.401 128.138 140.401C129.034 140.401 129.043 140.396 129.043 139.907C129.043 139.468 129.098 139.413 129.537 139.413C129.954 139.413 130.031 139.349 130.031 139.002C130.031 138.654 130.108 138.59 130.525 138.59C130.964 138.59 131.019 138.535 131.019 138.096C131.019 137.607 131.028 137.602 131.924 137.602C132.82 137.602 132.829 137.598 132.829 137.109C132.829 136.67 132.884 136.615 133.323 136.615C133.762 136.615 133.817 136.56 133.817 136.121C133.817 135.682 133.872 135.627 134.311 135.627C134.727 135.627 134.804 135.563 134.804 135.216C134.804 134.887 134.887 134.804 135.216 134.804C135.563 134.804 135.627 134.727 135.627 134.311C135.627 133.872 135.682 133.817 136.121 133.817C136.56 133.817 136.615 133.762 136.615 133.323C136.615 132.884 136.67 132.829 137.109 132.829C137.548 132.829 137.602 132.774 137.602 132.335C137.602 131.922 137.668 131.842 138.002 131.842C138.363 131.842 138.413 131.754 138.515 130.936C138.615 130.132 138.671 130.031 139.01 130.031C139.304 130.031 139.403 129.927 139.443 129.578C139.484 129.223 139.592 129.115 139.948 129.074C140.327 129.03 140.401 128.943 140.401 128.539C140.401 128.137 140.468 128.056 140.8 128.056C141.161 128.056 141.211 127.968 141.313 127.151C141.413 126.352 141.47 126.245 141.8 126.245C142.129 126.245 142.187 126.138 142.286 125.34C142.388 124.528 142.44 124.435 142.791 124.435C143.152 124.435 143.186 124.361 143.232 123.488C143.278 122.592 143.305 122.539 143.734 122.49C144.166 122.44 144.186 122.397 144.186 121.543C144.186 120.713 144.214 120.649 144.575 120.649C144.914 120.649 144.978 120.549 145.069 119.885C145.127 119.465 145.174 118.836 145.174 118.486C145.174 117.918 145.218 117.851 145.585 117.851C145.984 117.851 145.997 117.817 145.997 116.722C145.997 116.101 146.044 115.249 146.102 114.829C146.193 114.165 146.257 114.065 146.595 114.065H146.984V97.9348H146.589C146.202 97.9348 146.192 97.8977 146.076 96.0419C145.961 94.2009 145.947 94.1491 145.572 94.1491C145.204 94.1491 145.185 94.0915 145.139 92.7911C145.092 91.4517 145.086 91.4326 144.647 91.3819C144.229 91.3336 144.199 91.2749 144.153 90.3943C144.111 89.5833 144.057 89.4513 143.754 89.408C143.373 89.3539 143.204 88.7551 143.201 87.4526C143.199 86.8244 143.159 86.7595 142.746 86.7119C142.391 86.6711 142.282 86.5628 142.241 86.2073C142.2 85.8518 142.103 85.7547 141.789 85.7547C141.413 85.7547 141.388 85.6987 141.388 84.8494C141.388 83.9533 141.383 83.9441 140.894 83.9441C140.44 83.9441 140.401 83.8983 140.401 83.368C140.401 82.8678 140.348 82.7919 140.001 82.7919C139.64 82.7919 139.59 82.7044 139.488 81.8866C139.387 81.074 139.335 80.9814 138.983 80.9814C138.674 80.9814 138.59 80.8938 138.59 80.5699C138.59 80.2224 138.513 80.1584 138.096 80.1584C137.657 80.1584 137.602 80.1036 137.602 79.6646C137.602 79.2256 137.548 79.1708 137.109 79.1708C136.67 79.1708 136.615 79.116 136.615 78.677C136.615 78.2601 136.551 78.1832 136.203 78.1832C135.856 78.1832 135.792 78.1064 135.792 77.6894C135.792 77.2529 135.736 77.1957 135.309 77.1957C134.905 77.1957 134.818 77.1221 134.774 76.743C134.733 76.3875 134.625 76.2792 134.269 76.2384C133.914 76.1974 133.817 76.1003 133.817 75.7857C133.817 75.4503 133.736 75.3851 133.323 75.3851C132.884 75.3851 132.829 75.3303 132.829 74.8913C132.829 74.4523 132.774 74.3975 132.335 74.3975C131.896 74.3975 131.842 74.3427 131.842 73.9037C131.842 73.4149 131.832 73.4099 130.936 73.4099C130.04 73.4099 130.031 73.405 130.031 72.9161C130.031 72.4772 129.976 72.4224 129.537 72.4224C129.12 72.4224 129.043 72.3583 129.043 72.0109C129.043 71.6634 128.967 71.5994 128.55 71.5994C128.137 71.5994 128.056 71.534 128.056 71.1997C128.056 70.8388 127.968 70.7891 127.151 70.687C126.352 70.5873 126.245 70.5297 126.245 70.2003C126.245 69.871 126.138 69.8133 125.34 69.7136C124.522 69.6116 124.435 69.5618 124.435 69.2009C124.435 68.8221 124.383 68.8012 123.447 68.8012H122.46V67.8137H119.661V66.8261H118.262C116.88 66.8261 116.863 66.8213 116.863 66.4146V66.0031H113.078V65.0155H99.9099V65.4023ZM6.74845 181.303C6.74845 181.605 6.83618 181.714 7.07764 181.714C7.3191 181.714 7.40683 181.605 7.40683 181.303C7.40683 181.001 7.3191 180.891 7.07764 180.891C6.83618 180.891 6.74845 181.001 6.74845 181.303ZM10.3696 187.475C10.3696 188.243 10.3971 188.298 10.7811 188.298C11.1651 188.298 11.1925 188.243 11.1925 187.475C11.1925 186.707 11.1651 186.652 10.7811 186.652C10.3971 186.652 10.3696 186.707 10.3696 187.475ZM17.941 198.339C17.941 198.58 18.0508 198.668 18.3525 198.668C18.6542 198.668 18.764 198.58 18.764 198.339C18.764 198.097 18.6542 198.009 18.3525 198.009C18.0508 198.009 17.941 198.097 17.941 198.339ZM20.7391 200.231C20.7391 200.561 20.8214 200.643 21.1506 200.643C21.4798 200.643 21.5621 200.561 21.5621 200.231C21.5621 199.902 21.4798 199.82 21.1506 199.82C20.8214 199.82 20.7391 199.902 20.7391 200.231ZM42.3012 204.017C42.3012 204.41 42.3452 204.429 43.2888 204.429C44.2325 204.429 44.2764 204.41 44.2764 204.017C44.2764 203.624 44.2325 203.606 43.2888 203.606C42.3452 203.606 42.3012 203.624 42.3012 204.017ZM45.264 204.017C45.264 204.346 45.3463 204.429 45.6755 204.429C46.0047 204.429 46.087 204.346 46.087 204.017C46.087 203.688 46.0047 203.606 45.6755 203.606C45.3463 203.606 45.264 203.688 45.264 204.017ZM32.0963 205.828C32.0963 206.217 32.1457 206.239 33.0016 206.239C33.8575 206.239 33.9068 206.217 33.9068 205.828C33.9068 205.439 33.8575 205.416 33.0016 205.416C32.1457 205.416 32.0963 205.439 32.0963 205.828ZM44.2764 205.828C44.2764 206.175 44.3533 206.239 44.7702 206.239C45.1871 206.239 45.264 206.175 45.264 205.828C45.264 205.48 45.1871 205.416 44.7702 205.416C44.3533 205.416 44.2764 205.48 44.2764 205.828ZM43.4534 207.803C43.4534 208.192 43.5028 208.214 44.3587 208.214C45.2146 208.214 45.264 208.192 45.264 207.803C45.264 207.414 45.2146 207.391 44.3587 207.391C43.5028 207.391 43.4534 207.414 43.4534 207.803Z" fill="white"/>
</svg>
